# xmcd
# 
# Track frame offsets:
#     182
#     16652
#     29375
#     43277
#     57675
#     72300
#     86062
#     111072
#     128987
#     140680
#     154197
# 
# Disc length: 2269
# 
# Revision: 3
# Processed by: cddbd v1.5.2PL0 Copyright (c) Steve Scherf et al.
# Submitted via: BonkEnc v1.0.6
# 
DISCID=9e08db0b
DTITLE=Lou Rawls - At Last
DYEAR=1989
DGENRE=Blues
TTITLE0=At Last
TTITLE1=Two Years of Torture
TTITLE2=Fine Brown Frame
TTITLE3=Good Intentions
TTITLE4=That's Where It's At
TTITLE5=If I Were A Magician
TTITLE6=You Can't Go Home
TTITLE7=Room With A View
TTITLE8=After the Lights Go Down Low
TTITLE9=She's No Lady
TTITLE10=Oh, What a Nite
EXTD=
EXTT0=
EXTT1=
EXTT2=
EXTT3=Lou Rawls
EXTT4=
EXTT5=
EXTT6=
EXTT7=
EXTT8=
EXTT9=Lou Rawls
EXTT10=
PLAYORDER=
